<svg width="62" height="60" viewBox="0 0 62 60" fill="none" xmlns="http://www.w3.org/2000/svg">
<path d="M27.7567 0.191157C27.7156 0.191157 27.7156 0.191157 27.6745 0.191157C12.7523 1.83547 1.73541 14.209 1.03657 28.4324C1.03657 28.4324 -0.319989 39.3259 8.84707 50.3017C8.97039 50.4662 11.6835 53.1793 11.889 53.1793C12.3823 53.5904 13.0401 54.0836 13.5745 54.4536C13.5745 54.4536 13.5745 54.4536 13.6156 54.4536C19.3296 58.4821 25.9068 60.291 32.4841 59.9621C34.8273 59.8388 36.266 57.3722 35.3205 55.2757C34.1284 52.6448 31.3742 53.5492 29.8121 53.3437H29.7709C24.9613 53.2204 19.0007 50.9595 14.9311 47.0131C14.8488 46.9309 13.7389 45.862 13.6978 45.7387C13.2867 45.5332 10.7381 42.2035 9.50484 39.2848C2.5165 25.3492 13.78 5.90523 31.7853 6.64518C31.8675 6.64518 33.3062 6.72731 33.3885 6.76842C41.0345 7.42615 48.064 12.5235 51.3115 18.4842C52.0104 19.183 55.5868 26.4591 53.9014 34.5574C53.5725 36.2017 54.5591 37.805 56.1623 38.2983C58.0533 38.9149 60.0675 37.7227 60.4375 35.7906C64.5894 14.7434 46.3375 -1.98756 27.7567 0.191157Z" fill="url(#paint0_linear_34_350)"/>
<path d="M30.5932 14.5379C30.0176 14.5379 29.5244 14.0857 29.5244 13.4691V11.4959C29.5244 10.9204 29.9765 10.4271 30.5932 10.4271C31.2098 10.4271 31.662 10.8793 31.662 11.4959V13.4691C31.662 14.0446 31.1687 14.5379 30.5932 14.5379Z" fill="#E53F34"/>
<path d="M30.5932 50.1785C30.0176 50.1785 29.5244 49.7263 29.5244 49.1097V47.1366C29.5244 46.5611 29.9765 46.0677 30.5932 46.0677C31.2098 46.0677 31.662 46.52 31.662 47.1366V49.1097C31.662 49.7263 31.1687 50.1785 30.5932 50.1785Z" fill="#E53F34"/>
<path d="M13.7392 31.3511H11.7661C11.1906 31.3511 10.6973 30.899 10.6973 30.2823C10.6973 29.6657 11.1495 29.2135 11.7661 29.2135H13.7392C14.3147 29.2135 14.8081 29.6657 14.8081 30.2823C14.8081 30.899 14.3558 31.3511 13.7392 31.3511Z" fill="#E53F34"/>
<path d="M49.4209 31.3511H47.4477C46.8721 31.3511 46.3789 30.899 46.3789 30.2823C46.3789 29.6657 46.831 29.2135 47.4477 29.2135H49.4209C49.9964 29.2135 50.4897 29.6657 50.4897 30.2823C50.4897 30.899 49.9964 31.3511 49.4209 31.3511Z" fill="#E53F34"/>
<path d="M38.7732 20.9096C38.321 20.5396 37.6633 20.6218 37.2933 21.074L33.4292 25.9659C32.6892 25.5548 31.8259 25.3493 30.9216 25.3493C29.7294 25.3493 28.6607 25.7192 27.7974 26.377L17.1916 17.5388C16.7394 17.1688 16.0816 17.2098 15.7116 17.662C15.3417 18.1142 15.3828 18.772 15.835 19.1419L26.3586 27.939C25.8653 28.72 25.5775 29.6656 25.5775 30.6933C25.5775 33.612 27.9618 35.9962 30.8805 35.9962C33.7992 35.9962 36.1834 33.612 36.1834 30.6933C36.1834 29.4189 35.7312 28.2678 34.9913 27.3224L38.8965 22.3894C39.3076 21.8961 39.2254 21.2385 38.7732 20.9096Z" fill="#E53F34"/>
<path d="M40.5006 54.7413C39.5551 54.7413 38.8975 54.1658 38.8975 53.3026C38.8975 52.3982 39.2263 52.1515 41.3228 50.4661C41.775 50.0961 42.3094 49.6439 42.9671 49.1095C44.4881 47.8762 44.9403 47.3007 44.9403 46.4375C44.9403 45.6564 44.4059 45.122 43.6659 45.122C43.0493 45.122 42.3916 45.4509 41.8161 46.0675C41.6927 46.1909 41.3639 46.5198 40.7884 46.5198C40.254 46.5198 39.7607 46.2319 39.5141 45.7386C39.2674 45.2454 39.3496 44.6288 39.7196 44.2177C40.7884 42.9844 42.0216 42.409 43.7071 42.409C46.2558 42.409 47.9822 43.9299 47.9822 46.2319C47.9822 48.5751 46.6669 49.5617 43.8304 51.7404C43.666 51.8638 43.5426 51.946 43.3782 52.0693H46.8724C47.7356 52.0693 48.1878 52.727 48.1878 53.3848C48.1878 54.0425 47.7356 54.7002 46.8724 54.7002H40.5006V54.7413Z" fill="#E53F34"/>
<path d="M55.9571 54.8644C55.135 54.8644 54.5184 54.2477 54.5184 53.4256V52.2335H49.9142C49.3387 52.2335 48.8044 51.9046 48.5577 51.4113C48.27 50.7947 48.4754 50.0137 49.092 49.2738C50.2431 47.9583 51.1475 46.8894 51.8874 46.0262C54.8883 42.4909 54.9705 42.4088 55.9571 42.4088C56.7793 42.4088 57.3959 43.0254 57.3959 43.8475V49.7259H57.807C58.6292 49.7259 59.0813 50.3836 59.0813 51.0003C59.0813 51.6169 58.6292 52.2335 57.807 52.2335H57.3959V53.4256C57.3959 54.2066 56.7382 54.8644 55.9571 54.8644ZM54.5184 49.6848V46.8073L52.0519 49.6848H54.5184Z" fill="#E53F34"/>
<defs>
<linearGradient id="paint0_linear_34_350" x1="6.97258" y1="12.2951" x2="57.0029" y2="45.0663" gradientUnits="userSpaceOnUse">
<stop stop-color="#E53F34"/>
<stop offset="1" stop-color="#C9352C"/>
</linearGradient>
</defs>
</svg>
